<!-- ðŸ° Ashval Chat Favicon - Simplified Version -->
<svg width="32" height="32" viewBox="0 0 32 32" fill="none" xmlns="http://www.w3.org/2000/svg">
  <defs>
    <linearGradient id="bgGrad" x1="0%" y1="0%" x2="100%" y2="100%">
      <stop offset="0%" style="stop-color:#667eea"/>
      <stop offset="100%" style="stop-color:#764ba2"/>
    </linearGradient>
  </defs>
  
  <!-- Background -->
  <rect width="32" height="32" rx="6" fill="url(#bgGrad)"/>
  
  <!-- Simplified castle -->
  <g transform="translate(4, 6)">
    <!-- Main tower -->
    <rect x="8" y="4" width="8" height="16" fill="#ff6b6b" rx="1"/>
    <polygon points="8,4 12,1 16,4" fill="#f093fb"/>
    
    <!-- Side towers -->
    <rect x="2" y="8" width="6" height="12" fill="#ff6b6b" rx="1"/>
    <rect x="16" y="8" width="6" height="12" fill="#ff6b6b" rx="1"/>
    
    <!-- Windows -->
    <rect x="3" y="10" width="2" height="3" fill="#2d3748" rx="1"/>
    <rect x="19" y="10" width="2" height="3" fill="#2d3748" rx="1"/>
    <rect x="10" y="7" width="2" height="3" fill="#2d3748" rx="1"/>
    
    <!-- Gate -->
    <rect x="9" y="15" width="6" height="5" fill="#2d3748" rx="1"/>
  </g>
  
  <!-- Chat indicator -->
  <circle cx="24" cy="24" r="4" fill="#ffffff" opacity="0.9"/>
  <circle cx="22" cy="23" r="1" fill="#667eea"/>
  <circle cx="24" cy="23" r="1" fill="#667eea"/>
  <circle cx="26" cy="23" r="1" fill="#667eea"/>
</svg>
